<svg width="30" height="30" viewBox="0 0 30 30" fill="none" xmlns="http://www.w3.org/2000/svg">
<mask id="mask0_3_670" style="mask-type:alpha" maskUnits="userSpaceOnUse" x="0" y="0" width="30" height="30">
<rect width="30" height="30" fill="#D9D9D9"/>
</mask>
<g mask="url(#mask0_3_670)">
<path d="M7.49958 26.25C6.24958 26.25 5.25479 25.7656 4.51521 24.7969C3.77563 23.8281 3.56208 22.75 3.87458 21.5625L6.12458 13.0625C5.43708 12.625 4.86938 12.0312 4.42146 11.2812C3.97354 10.5312 3.74958 9.6875 3.74958 8.75C3.74958 7.375 4.23917 6.19792 5.21833 5.21875C6.1975 4.23958 7.37458 3.75 8.74958 3.75H18.7496C19.6871 3.75 20.3954 4.14583 20.8746 4.9375C21.3538 5.72917 21.385 6.54167 20.9683 7.375L18.4683 12.375C18.2392 12.7917 17.9319 13.125 17.5465 13.375C17.161 13.625 16.7288 13.75 16.2496 13.75H13.7183L13.3746 15H13.7496C14.1038 15 14.4006 15.1198 14.6402 15.3594C14.8798 15.599 14.9996 15.8958 14.9996 16.25V18.75C14.9996 19.1042 14.8798 19.401 14.6402 19.6406C14.4006 19.8802 14.1038 20 13.7496 20H12.0621L11.1246 23.5C10.8954 24.3125 10.4475 24.974 9.78083 25.4844C9.11417 25.9948 8.35375 26.25 7.49958 26.25ZM7.49958 23.75C7.79125 23.75 8.04125 23.6667 8.24958 23.5C8.45792 23.3333 8.60375 23.1146 8.68708 22.8438L11.1246 13.75H8.53083L6.28083 22.1875C6.17667 22.5833 6.24958 22.9427 6.49958 23.2656C6.74958 23.5885 7.08292 23.75 7.49958 23.75ZM8.74958 11.25H16.2496L18.7496 6.25H8.74958C8.06208 6.25 7.47354 6.49479 6.98396 6.98438C6.49438 7.47396 6.24958 8.0625 6.24958 8.75C6.24958 9.4375 6.49438 10.026 6.98396 10.5156C7.47354 11.0052 8.06208 11.25 8.74958 11.25ZM23.7496 6.25L22.9683 4.5625L27.4996 2.5L28.2496 4.21875L23.7496 6.25ZM27.4996 15L22.9683 12.9688L23.7496 11.25L28.2496 13.3125L27.4996 15ZM23.7496 9.6875V7.8125H28.7496V9.6875H23.7496Z" fill="#1C1B1F"/>
</g>
</svg>
