<svg width="30" height="30" viewBox="0 0 30 30" fill="none" xmlns="http://www.w3.org/2000/svg">
<mask id="mask0_3_681" style="mask-type:alpha" maskUnits="userSpaceOnUse" x="0" y="0" width="30" height="30">
<rect width="30" height="30" fill="#D9D9D9"/>
</mask>
<g mask="url(#mask0_3_681)">
<path d="M13.75 25.5625C11.2917 25.25 9.21875 24.1667 7.53125 22.3125C5.84375 20.4583 5 18.2708 5 15.75C5 14.375 5.25521 13.099 5.76562 11.9219C6.27604 10.7448 7 9.70833 7.9375 8.8125L15 1.875L22.0625 8.8125C22.8125 9.5625 23.4323 10.4062 23.9219 11.3438C24.4115 12.2812 24.7396 13.2917 24.9062 14.375H22.375C22.2292 13.6667 21.9844 12.9948 21.6406 12.3594C21.2969 11.724 20.8542 11.1458 20.3125 10.625L15 5.375L9.6875 10.625C8.95833 11.3125 8.41146 12.0885 8.04688 12.9531C7.68229 13.8177 7.5 14.75 7.5 15.75C7.5 17.5625 8.09896 19.1562 9.29688 20.5312C10.4948 21.9062 11.9792 22.7396 13.75 23.0313V25.5625ZM16.625 19.5938L15.875 17.875C16.4167 17.5833 16.9844 17.3438 17.5781 17.1562C18.1719 16.9688 18.7708 16.875 19.375 16.875C19.8542 16.875 20.3281 16.9323 20.7969 17.0469C21.2656 17.1615 21.7188 17.3021 22.1562 17.4688C22.5312 17.6354 22.9115 17.7812 23.2969 17.9062C23.6823 18.0312 24.0833 18.0938 24.5 18.0938C24.9792 18.0938 25.4479 18.0104 25.9062 17.8438C26.3646 17.6771 26.8125 17.4792 27.25 17.25L28 18.9688C27.4583 19.2604 26.8906 19.5 26.2969 19.6875C25.7031 19.875 25.1042 19.9688 24.5 19.9688C24.0208 19.9688 23.5469 19.9115 23.0781 19.7969C22.6094 19.6823 22.1562 19.5417 21.7188 19.375C21.3438 19.2083 20.9635 19.0625 20.5781 18.9375C20.1927 18.8125 19.7917 18.75 19.375 18.75C18.8958 18.75 18.4271 18.8333 17.9688 19C17.5104 19.1667 17.0625 19.3646 16.625 19.5938ZM16.625 23.3438L15.875 21.625C16.4167 21.3333 16.9844 21.0938 17.5781 20.9062C18.1719 20.7188 18.7708 20.625 19.375 20.625C19.8542 20.625 20.3281 20.6823 20.7969 20.7969C21.2656 20.9115 21.7188 21.0521 22.1562 21.2188C22.5312 21.3854 22.9115 21.5312 23.2969 21.6562C23.6823 21.7812 24.0833 21.8438 24.5 21.8438C24.9792 21.8438 25.4479 21.7604 25.9062 21.5938C26.3646 21.4271 26.8125 21.2292 27.25 21L28 22.7188C27.4583 23.0104 26.8906 23.25 26.2969 23.4375C25.7031 23.625 25.1042 23.7188 24.5 23.7188C24.0208 23.7188 23.5469 23.6615 23.0781 23.5469C22.6094 23.4323 22.1562 23.2917 21.7188 23.125C21.3438 22.9583 20.9635 22.8125 20.5781 22.6875C20.1927 22.5625 19.7917 22.5 19.375 22.5C18.8958 22.5 18.4271 22.5833 17.9688 22.75C17.5104 22.9167 17.0625 23.1146 16.625 23.3438ZM16.625 27.0938L15.875 25.375C16.4167 25.0833 16.9844 24.8438 17.5781 24.6562C18.1719 24.4688 18.7708 24.375 19.375 24.375C19.8542 24.375 20.3281 24.4323 20.7969 24.5469C21.2656 24.6615 21.7188 24.8021 22.1562 24.9688C22.5312 25.1354 22.9115 25.2812 23.2969 25.4062C23.6823 25.5313 24.0833 25.5938 24.5 25.5938C24.9792 25.5938 25.4479 25.5104 25.9062 25.3438C26.3646 25.1771 26.8125 24.9792 27.25 24.75L28 26.4688C27.4583 26.7604 26.8906 27 26.2969 27.1875C25.7031 27.375 25.1042 27.4688 24.5 27.4688C24.0208 27.4688 23.5469 27.4115 23.0781 27.2969C22.6094 27.1823 22.1562 27.0417 21.7188 26.875C21.3438 26.7083 20.9635 26.5625 20.5781 26.4375C20.1927 26.3125 19.7917 26.25 19.375 26.25C18.8958 26.25 18.4271 26.3333 17.9688 26.5C17.5104 26.6667 17.0625 26.8646 16.625 27.0938Z" fill="#1C1B1F"/>
</g>
</svg>
